<?xml version="1.0" encoding="UTF-8"?>
<!DOCTYPE svg PUBLIC "-//W3C//DTD SVG 1.1//EN" "http://www.w3.org/Graphics/SVG/1.1/DTD/svg11.dtd">
<!-- Creator: CorelDRAW X8 -->
<svg xmlns="http://www.w3.org/2000/svg" xml:space="preserve" width="203px" height="31px" version="1.1" style="shape-rendering:geometricPrecision; text-rendering:geometricPrecision; image-rendering:optimizeQuality; fill-rule:evenodd; clip-rule:evenodd"
viewBox="0 0 149 23"
 xmlns:xlink="http://www.w3.org/1999/xlink">
 <defs>
  <style type="text/css">
   <![CDATA[
    .fil1 {fill:#0097D2}
    .fil0 {fill:black;fill-rule:nonzero}
   ]]>
  </style>
 </defs>
 <g id="Layer_x0020_1">
  <metadata id="CorelCorpID_0Corel-Layer"/>
  <path class="fil0" d="M41 18l2 0 0 -4 1 0c2,0 4,-1 4,-3 0,-3 -2,-3 -4,-3l-3 0 0 10zm2 -6l0 -3 1 0c1,0 2,1 2,2 0,1 -1,1 -2,1l-1 0zm7 6l2 0 0 -8 -2 0 0 8zm1 -9c0,0 1,-1 1,-1 0,-1 -1,-1 -1,-1 -1,0 -2,0 -2,1 0,0 1,1 2,1zm3 9l2 0 0 -5c0,-1 1,-1 2,-1 0,0 0,0 0,0l1 -2c0,0 -1,0 -1,0 -1,0 -2,0 -2,1l0 0 0 -1 -2 0 0 8zm7 0c1,0 2,-1 2,-1l0 0 1 1 1 0 0 -5c0,-2 -1,-3 -3,-3 -1,0 -2,0 -3,1l1 1c1,0 1,0 2,0 1,0 1,0 1,1 -3,0 -4,1 -4,2 0,2 1,3 2,3zm1 -2c-1,0 -1,0 -1,-1 0,0 1,-1 2,-1l0 1c0,1 -1,1 -1,1zm1 -7l2 -2 -1 -2 -2 3 1 1zm7 9c1,0 1,0 2,-1l-1 -1c0,0 0,0 0,0 -1,0 -1,0 -1,-1l0 -3 1 0 0 -2 -1 0 0 -2 -2 0 -1 2 -1 0 0 2 1 0 0 3c0,2 1,3 3,3zm5 0c2,0 3,-1 3,-3 0,-1 -1,-2 -2,-2 -1,0 -2,0 -2,-1 0,0 1,0 1,0 1,0 1,0 2,0l1 -1c-1,-1 -2,-1 -3,-1 -1,0 -3,1 -3,2 0,1 1,2 2,2 1,1 2,1 2,1 0,1 0,1 -1,1 -1,0 -1,0 -2,-1l-1 2c1,0 2,1 3,1zm4 0l3 0 0 -2 1 -1 1 3 3 0 -3 -5 2 -3 -2 0 -2 3 0 0 0 -6 -3 0 0 11zm10 0c1,0 2,-1 3,-1l0 0 0 1 2 0 0 -5c0,-2 -1,-3 -3,-3 -2,0 -3,0 -4,1l1 1c1,0 2,0 2,0 1,0 1,0 1,1 -3,0 -4,1 -4,2 0,2 1,3 2,3zm1 -2c0,0 -1,0 -1,-1 0,0 1,-1 2,-1l0 1c0,1 0,1 -1,1zm1 -7l3 -2 -2 -2 -2 3 1 1zm10 9c1,0 2,0 2,-1l0 -1c0,0 -1,0 -1,0 -1,0 -1,0 -1,-1l0 -3 2 0 0 -2 -2 0 0 -2 -2 0 0 2 -1 0 0 2 1 0 0 3c0,2 1,3 2,3zm6 0c1,0 2,-1 3,-1l-1 -1c0,0 -1,0 -1,0 -1,0 -2,0 -2,-2l4 0c0,0 0,0 0,-1 0,-2 -1,-3 -3,-3 -2,0 -3,1 -3,4 0,2 1,4 3,4zm-1 -5c0,-1 1,-1 1,-1 1,0 2,0 2,1l-3 0zm8 5c1,0 1,0 1,0l0 -2c0,0 0,0 0,0 -1,0 -1,0 -1,-1l0 -8 -2 0 0 8c0,2 0,3 2,3zm6 0c1,0 2,-1 2,-1l0 -1c-1,0 -1,0 -2,0 -1,0 -2,0 -2,-2l5 0c0,0 0,0 0,-1 0,-2 -1,-3 -4,-3 -1,0 -3,1 -3,4 0,2 2,4 4,4zm-2 -5c0,-1 1,-1 1,-1 1,0 2,0 2,1l-3 0zm8 5l2 0 3 -8 -2 0 -1 4c0,0 -1,1 -1,2l0 0c0,-1 0,-2 -1,-2l0 -4 -3 0 3 8zm6 0l2 0 0 -8 -2 0 0 8zm1 -9c1,0 1,-1 1,-1 0,-1 0,-1 -1,-1 -1,0 -1,0 -1,1 0,0 0,1 1,1zm3 9l6 0 0 -2 -3 0 3 -5 0 -1 -6 0 0 2 3 0 -3 4 0 2zm10 0c1,0 2,-1 3,-1l-1 -1c0,0 -1,0 -1,0 -1,0 -2,0 -2,-2l4 0c0,0 0,0 0,-1 0,-2 -1,-3 -3,-3 -2,0 -3,1 -3,4 0,2 1,4 3,4zm-1 -5c0,-1 0,-1 1,-1 1,0 1,0 1,1l-2 0z"/>
  <path class="fil1" d="M14 12c-1,2 -3,3 -4,4l0 -9c2,0 5,2 4,5zm1 -8c6,0 9,0 10,0 1,0 1,-4 1,-4l1 0 1 5 4 1 0 2 -4 -1c0,0 1,7 1,10 -1,3 -6,6 -14,6 -2,0 -4,0 -6,0 0,-2 0,-4 2,-5 3,-2 12,-1 11,-6 0,-7 -8,-7 -12,-6l0 -2c2,0 3,0 5,0zm-6 19c-5,-1 -9,-3 -9,-7 0,-6 1,-9 3,-10 1,-1 3,-2 6,-2l0 2c-1,0 -1,0 -1,0 0,0 1,0 1,0l0 11c-1,2 0,5 0,6z"/>
 </g>
</svg>
