<?xml version="1.0" standalone="no"?>
<!DOCTYPE svg PUBLIC "-//W3C//DTD SVG 20010904//EN"
 "http://www.w3.org/TR/2001/REC-SVG-20010904/DTD/svg10.dtd">
<svg version="1.0" xmlns="http://www.w3.org/2000/svg"
 width="3276.000000pt" height="3276.000000pt" viewBox="0 0 3276.000000 3276.000000"
 preserveAspectRatio="xMidYMid meet">
<metadata>
Created by potrace 1.11, written by Peter Selinger 2001-2013
</metadata>
<g transform="translate(0.000000,3276.000000) scale(0.100000,-0.100000)"
fill="#000000" stroke="none">
<path d="M26494 27909 c3 -24 8 -71 11 -104 3 -33 7 -80 10 -105 7 -64 14
-151 20 -255 3 -49 8 -106 10 -125 27 -219 27 -1266 0 -1555 -3 -27 -7 -75
-10 -105 -14 -148 -28 -263 -39 -330 -2 -14 -8 -47 -12 -75 -4 -27 -8 -52 -9
-55 0 -3 -5 -27 -10 -55 -4 -27 -9 -54 -11 -60 -1 -5 -4 -21 -7 -35 -45 -233
-160 -571 -234 -692 -13 -21 -23 -40 -23 -43 0 -17 -118 -180 -166 -229 -119
-122 -205 -174 -378 -231 -352 -115 -839 -143 -1726 -100 -98 5 -262 14 -325
19 -27 2 -97 7 -155 11 -58 4 -125 8 -150 10 -25 2 -81 7 -125 10 -44 3 -102
7 -130 10 -27 2 -86 7 -130 10 -44 3 -100 8 -125 10 -25 2 -81 7 -125 10 -44
3 -100 8 -125 10 -25 3 -79 7 -120 10 -41 3 -100 8 -130 10 -56 6 -92 9 -240
20 -47 3 -101 8 -120 10 -19 2 -73 7 -120 10 -47 4 -101 8 -120 10 -19 2 -78
6 -130 10 -52 3 -111 8 -130 10 -19 2 -73 7 -120 10 -47 3 -103 7 -125 9 -22
2 -80 7 -130 11 -49 3 -112 8 -140 10 -81 7 -206 15 -275 20 -73 5 -185 13
-275 20 -33 3 -98 7 -145 10 -138 9 -240 15 -320 21 -41 3 -111 7 -155 10
-227 12 -225 12 -515 29 -36 3 -126 7 -200 10 -74 4 -166 8 -205 10 -93 6
-261 14 -415 20 -69 3 -172 7 -230 10 -100 4 -318 12 -555 20 -701 24 -1618
38 -2440 37 -545 0 -1471 -9 -1865 -17 -706 -15 -1103 -27 -1640 -50 -69 -3
-172 -8 -230 -10 -176 -7 -321 -14 -405 -20 -44 -3 -125 -7 -180 -10 -234 -12
-403 -23 -475 -30 -25 -2 -83 -7 -130 -10 -47 -3 -110 -8 -140 -10 -53 -5
-120 -10 -265 -20 -38 -3 -97 -7 -130 -10 -33 -3 -96 -7 -140 -10 -151 -12
-190 -15 -245 -20 -30 -3 -77 -7 -105 -10 -82 -7 -177 -16 -220 -20 -104 -12
-235 -25 -285 -30 -30 -3 -71 -7 -90 -10 -19 -2 -57 -7 -85 -10 -27 -3 -68 -7
-90 -10 -22 -3 -62 -7 -90 -10 -27 -3 -86 -10 -130 -16 -44 -6 -93 -12 -110
-14 -69 -9 -123 -16 -146 -20 -13 -2 -44 -7 -69 -9 -46 -5 -254 -34 -300 -41
-14 -3 -56 -9 -95 -15 -89 -13 -127 -19 -195 -30 -30 -5 -71 -12 -90 -15 -19
-3 -46 -8 -60 -10 -14 -2 -65 -11 -115 -19 -177 -30 -271 -46 -310 -56 -22 -5
-80 -16 -130 -25 -72 -13 -335 -68 -440 -92 -11 -2 -31 -6 -45 -9 -47 -10
-275 -64 -315 -76 -22 -6 -65 -17 -95 -24 -284 -65 -995 -283 -1190 -366 -19
-8 -38 -16 -42 -17 -18 -4 -162 -59 -213 -81 -11 -5 -65 -28 -119 -50 -267
-112 -587 -272 -836 -420 -551 -325 -1061 -772 -1456 -1275 -267 -340 -534
-789 -708 -1190 -10 -22 -24 -53 -31 -70 -77 -163 -264 -683 -326 -905 -7 -25
-14 -49 -15 -55 -22 -76 -116 -430 -129 -485 -2 -8 -11 -46 -19 -85 -9 -38
-18 -79 -21 -90 -19 -75 -127 -637 -140 -730 -4 -22 -12 -78 -20 -125 -8 -47
-17 -105 -20 -130 -3 -25 -8 -56 -10 -70 -9 -48 -14 -85 -20 -140 -3 -30 -7
-66 -10 -80 -6 -33 -13 -89 -30 -230 -2 -19 -9 -73 -14 -120 -6 -47 -13 -110
-16 -140 -3 -30 -7 -71 -10 -90 -5 -42 -12 -112 -20 -200 -3 -36 -8 -85 -10
-110 -3 -25 -7 -76 -10 -115 -3 -38 -7 -90 -10 -115 -2 -25 -7 -81 -10 -125
-4 -44 -8 -100 -10 -125 -2 -25 -7 -88 -10 -140 -3 -52 -8 -120 -10 -150 -2
-30 -6 -102 -10 -160 -3 -58 -8 -136 -10 -175 -3 -38 -7 -128 -10 -200 -4 -71
-8 -166 -10 -210 -2 -44 -7 -156 -10 -250 -3 -93 -8 -222 -10 -285 -20 -528
-33 -1995 -21 -2235 8 -147 17 -291 21 -315 2 -14 6 -56 10 -95 7 -73 51 -404
59 -441 2 -12 7 -38 10 -59 11 -69 47 -239 73 -340 13 -55 26 -110 29 -122 8
-42 93 -319 129 -422 184 -528 455 -1035 788 -1474 87 -115 104 -136 150 -190
11 -12 33 -39 50 -60 18 -21 41 -49 52 -61 11 -12 42 -47 69 -77 245 -274 594
-589 932 -840 159 -118 438 -309 452 -309 6 0 12 -4 14 -8 1 -4 19 -17 38 -28
19 -12 87 -53 150 -91 103 -62 197 -115 400 -225 87 -48 348 -178 435 -218
121 -56 425 -190 430 -190 3 0 24 -9 48 -19 177 -82 790 -303 1137 -410 58
-18 119 -37 135 -42 100 -31 345 -100 369 -105 16 -3 32 -7 35 -9 6 -3 222
-62 261 -70 8 -2 67 -17 130 -33 108 -28 526 -126 580 -136 14 -2 48 -10 75
-16 28 -6 61 -14 75 -16 14 -2 36 -7 50 -10 14 -3 34 -8 45 -10 11 -2 43 -8
70 -14 28 -6 61 -12 75 -15 14 -3 48 -9 75 -15 28 -5 68 -13 90 -16 22 -3 42
-7 45 -9 3 -2 26 -6 50 -10 25 -3 52 -8 60 -10 8 -2 31 -7 50 -10 19 -3 87
-15 150 -26 63 -11 126 -22 140 -25 44 -7 214 -35 235 -39 36 -5 100 -15 120
-19 11 -2 45 -7 75 -11 30 -4 62 -9 71 -10 9 -2 40 -6 69 -10 29 -4 61 -8 71
-10 9 -2 39 -6 66 -10 26 -4 59 -9 73 -11 21 -3 165 -22 305 -40 22 -2 51 -7
65 -9 14 -2 50 -7 80 -10 30 -3 71 -8 90 -10 19 -2 59 -7 89 -11 30 -3 61 -7
70 -9 9 -2 48 -6 86 -9 39 -4 81 -8 95 -11 14 -2 57 -7 95 -10 39 -4 84 -8
100 -10 32 -4 107 -11 203 -20 31 -3 73 -8 92 -10 38 -4 116 -11 220 -20 36
-3 85 -7 110 -10 25 -2 81 -7 125 -10 95 -7 172 -14 240 -20 28 -2 88 -7 135
-10 47 -3 114 -8 150 -10 61 -5 103 -8 305 -20 44 -3 118 -7 165 -10 47 -3
123 -8 170 -10 47 -3 126 -7 175 -10 50 -2 151 -7 225 -10 74 -3 173 -7 220
-10 153 -8 498 -19 980 -31 428 -11 2065 -11 2390 0 362 12 623 22 760 31 36
2 117 6 180 10 63 3 146 8 183 11 38 3 103 7 145 9 43 2 104 7 137 10 33 3 96
7 140 10 44 3 103 7 130 10 28 2 84 7 125 10 141 12 165 14 205 19 22 2 74 7
115 11 41 3 93 8 115 10 22 3 67 7 100 10 33 3 71 7 85 9 14 3 57 8 95 11 39
3 84 8 100 10 17 2 75 9 130 15 55 6 111 13 125 15 14 2 50 7 80 10 30 3 66 8
80 10 25 4 72 10 148 20 72 9 126 16 152 20 29 4 97 13 155 21 22 2 51 7 65
10 14 2 39 6 55 9 17 2 48 6 70 10 22 3 81 12 130 20 142 22 152 23 305 49
143 24 352 61 400 71 14 3 77 14 140 26 94 17 215 41 375 74 11 3 34 7 50 11
121 24 470 102 610 135 94 23 175 42 180 43 6 1 19 5 30 9 11 3 31 8 45 11 36
7 403 102 525 137 39 11 77 22 85 24 8 1 56 15 105 30 50 14 97 28 105 30 8 2
47 14 85 25 39 12 106 32 150 45 44 13 109 33 145 45 36 11 121 39 190 62 282
91 857 296 975 348 11 5 56 23 100 40 44 18 89 36 100 41 11 4 99 42 196 83
427 179 998 456 1319 640 41 24 102 58 135 76 33 18 67 39 76 46 8 8 19 14 22
14 4 0 43 23 87 50 44 28 82 50 85 50 9 0 398 255 525 344 36 25 73 51 84 58
64 44 380 287 476 366 825 683 1386 1414 1671 2177 26 68 93 278 104 325 36
150 63 293 90 470 20 135 22 153 30 230 4 36 9 73 11 83 1 10 6 50 9 90 3 39
8 83 10 97 4 24 9 79 20 228 3 37 8 90 10 117 4 48 13 204 20 350 27 540 27
1685 0 2395 -12 315 -17 433 -20 498 -2 40 -7 125 -10 190 -3 64 -8 151 -10
192 -2 41 -7 122 -10 180 -3 58 -7 137 -10 175 -3 39 -7 111 -10 160 -3 50 -7
110 -10 135 -2 25 -7 97 -10 160 -4 63 -8 131 -10 150 -2 19 -6 80 -9 135 -4
55 -9 118 -11 140 -2 22 -7 81 -10 130 -4 50 -8 108 -10 130 -2 22 -7 76 -10
120 -3 44 -8 96 -10 115 -2 19 -6 72 -9 118 -8 103 -15 182 -21 247 -3 28 -7
82 -10 120 -3 39 -8 93 -10 120 -3 28 -7 73 -10 100 -2 28 -7 76 -10 108 -9
100 -16 171 -20 202 -2 17 -6 66 -10 110 -3 44 -8 94 -10 110 -5 39 -15 129
-19 185 -15 166 -19 207 -21 220 -2 8 -6 44 -10 80 -3 36 -8 81 -10 100 -2 19
-7 67 -10 105 -3 39 -8 77 -10 85 -2 8 -7 51 -11 95 -3 44 -8 88 -9 97 -2 9
-6 48 -10 85 -3 37 -8 79 -10 93 -3 14 -7 52 -10 85 -3 33 -8 71 -10 85 -2 14
-7 52 -10 85 -3 33 -10 94 -15 135 -6 41 -12 95 -14 120 -4 42 -13 114 -21
170 -4 26 -11 91 -20 170 -3 25 -14 117 -26 205 -22 175 -22 175 -20 191 1 6
31 4 89 -8 48 -10 101 -20 117 -23 17 -3 73 -14 125 -25 52 -11 109 -21 125
-24 17 -3 75 -15 130 -27 55 -11 111 -23 125 -25 113 -21 242 -46 275 -54 22
-6 56 -12 75 -15 19 -3 100 -19 180 -35 80 -16 159 -32 175 -35 35 -6 60 -11
95 -19 14 -3 36 -8 50 -10 14 -3 61 -12 105 -21 44 -9 89 -18 100 -19 11 -2
90 -18 175 -35 85 -18 171 -34 190 -37 19 -3 49 -9 65 -14 17 -5 50 -12 75
-15 24 -4 47 -8 50 -10 3 -2 21 -6 40 -9 58 -10 94 -17 110 -21 8 -2 31 -7 50
-10 29 -5 339 -67 405 -81 10 -2 36 -6 56 -9 20 -3 50 -10 68 -15 17 -5 35 -9
39 -9 19 -2 86 -14 167 -31 50 -11 106 -22 125 -25 19 -3 42 -8 50 -10 8 -2
31 -7 50 -10 19 -3 42 -8 50 -10 8 -2 34 -7 58 -10 l42 -6 1 63 c0 35 2 71 4
80 2 9 6 79 10 155 3 76 8 158 10 183 2 25 7 97 10 160 3 63 8 140 10 170 2
30 7 107 11 170 3 63 8 138 9 165 7 106 18 322 19 365 l1 45 -70 17 c-38 10
-81 19 -95 22 -48 9 -215 46 -230 51 -8 2 -30 7 -49 10 -19 3 -37 8 -41 10 -4
2 -22 7 -41 10 -28 5 -157 33 -234 51 -11 3 -31 7 -45 10 -14 3 -41 9 -60 14
-29 8 -89 21 -205 45 -11 3 -90 21 -175 40 -85 20 -168 39 -185 41 -16 3 -86
19 -155 35 -69 15 -144 31 -165 35 -22 3 -43 8 -46 9 -5 4 -212 52 -254 59
-11 2 -49 11 -85 20 -36 8 -76 17 -90 20 -14 2 -97 21 -185 41 -88 20 -171 38
-185 41 -14 2 -61 13 -105 23 -44 11 -93 22 -110 25 -54 11 -68 14 -230 51
-88 20 -168 38 -178 40 -10 2 -26 6 -35 9 -9 3 -32 8 -49 11 -31 5 -77 15
-228 50 -158 36 -202 46 -220 49 -11 3 -42 10 -70 16 -27 6 -59 14 -70 16 -11
2 -29 6 -40 8 -11 3 -57 13 -102 22 -89 20 -85 15 -98 114 -2 14 -6 39 -9 55
-4 24 -57 345 -80 480 -17 109 -37 224 -41 245 -3 14 -7 43 -10 65 -3 22 -7
50 -9 61 -2 12 -7 39 -11 60 -3 22 -8 50 -10 64 -2 14 -11 68 -20 120 -8 52
-17 106 -20 120 -2 13 -7 42 -10 65 -4 22 -8 54 -11 70 -43 256 -162 978 -169
1020 -1 11 -8 52 -15 90 -6 39 -14 84 -16 100 -2 17 -7 44 -10 60 -3 17 -8 44
-10 60 -3 17 -12 68 -19 115 -8 47 -16 94 -18 105 -3 11 -8 43 -11 70 -11 77
-16 106 -26 160 -5 28 -12 68 -15 90 -9 56 -16 96 -21 125 -2 14 -19 120 -38
235 -19 116 -38 228 -41 250 -4 22 -8 49 -10 60 -2 11 -11 65 -20 120 -10 55
-19 109 -21 120 -23 147 -34 214 -38 231 -5 23 -10 57 -27 164 -10 67 -11 71
-25 155 -4 28 -7 53 -6 57 1 4 -22 14 -51 22 -28 8 -133 38 -232 66 -99 28
-341 96 -537 151 -197 55 -365 102 -374 106 -14 5 -15 0 -10 -38z"/>
</g>
</svg>
